<svg xmlns="http://www.w3.org/2000/svg" viewBox="0 0 256 256">
<defs><linearGradient id="g" x1="0" y1="0" x2="1" y2="1"><stop offset="0" stop-color="#17a37a"/><stop offset="1" stop-color="#0b6147"/></linearGradient></defs>
<rect width="256" height="256" rx="58" fill="url(#g)"/>
<circle cx="63.3" cy="63.3" r="8.6" fill="#f1faf6"/>
<circle cx="89.0" cy="63.3" r="8.6" fill="#f1faf6"/>
<circle cx="114.7" cy="63.3" r="3.3" fill="#f1faf6"/>
<circle cx="140.3" cy="63.3" r="3.3" fill="#f1faf6"/>
<circle cx="166.0" cy="63.3" r="8.6" fill="#f1faf6"/>
<circle cx="191.7" cy="63.3" r="8.6" fill="#f1faf6"/>
<circle cx="63.3" cy="89.0" r="5.1" fill="#f1faf6"/>
<circle cx="89.0" cy="89.0" r="8.6" fill="#f1faf6"/>
<circle cx="114.7" cy="89.0" r="5.1" fill="#f1faf6"/>
<circle cx="140.3" cy="89.0" r="5.1" fill="#f1faf6"/>
<circle cx="166.0" cy="89.0" r="8.6" fill="#f1faf6"/>
<circle cx="191.7" cy="89.0" r="5.1" fill="#f1faf6"/>
<circle cx="63.3" cy="114.7" r="3.3" fill="#f1faf6"/>
<circle cx="89.0" cy="114.7" r="8.6" fill="#f1faf6"/>
<circle cx="114.7" cy="114.7" r="8.6" fill="#f1faf6"/>
<circle cx="140.3" cy="114.7" r="8.6" fill="#f1faf6"/>
<circle cx="166.0" cy="114.7" r="8.6" fill="#f1faf6"/>
<circle cx="191.7" cy="114.7" r="3.3" fill="#f1faf6"/>
<circle cx="63.3" cy="140.3" r="3.3" fill="#f1faf6"/>
<circle cx="89.0" cy="140.3" r="5.1" fill="#f1faf6"/>
<circle cx="114.7" cy="140.3" r="8.6" fill="#f1faf6"/>
<circle cx="140.3" cy="140.3" r="8.6" fill="#f1faf6"/>
<circle cx="166.0" cy="140.3" r="5.1" fill="#f1faf6"/>
<circle cx="191.7" cy="140.3" r="3.3" fill="#f1faf6"/>
<circle cx="63.3" cy="166.0" r="3.3" fill="#f1faf6"/>
<circle cx="89.0" cy="166.0" r="3.3" fill="#f1faf6"/>
<circle cx="114.7" cy="166.0" r="8.6" fill="#f1faf6"/>
<circle cx="140.3" cy="166.0" r="8.6" fill="#f1faf6"/>
<circle cx="166.0" cy="166.0" r="3.3" fill="#f1faf6"/>
<circle cx="191.7" cy="166.0" r="3.3" fill="#f1faf6"/>
<circle cx="63.3" cy="191.7" r="3.3" fill="#f1faf6"/>
<circle cx="89.0" cy="191.7" r="3.3" fill="#f1faf6"/>
<circle cx="114.7" cy="191.7" r="8.6" fill="#f1faf6"/>
<circle cx="140.3" cy="191.7" r="8.6" fill="#f1faf6"/>
<circle cx="166.0" cy="191.7" r="3.3" fill="#f1faf6"/>
<circle cx="191.7" cy="191.7" r="3.3" fill="#f1faf6"/>
</svg>
